# Blender v2.79 (sub 0) OBJ File: 'RockSet.blend'
# www.blender.org
mtllib Rock5_20.mtl
o Cube.001_Cube.002
v -0.115913 0.703770 0.789655
v 0.283524 -0.098965 -0.563110
v 1.324310 0.030177 0.518223
v -0.417882 0.838918 0.072469
v -0.477722 0.727091 -0.470595
v -0.205645 0.290881 0.825393
v 0.184189 0.011117 0.777627
v -0.641850 0.168201 0.213023
v -0.844896 0.582661 -0.019694
v 0.377643 0.737488 -0.832910
v 0.966942 -0.138065 0.306218
v -0.231198 -0.069854 0.276520
v 1.337871 0.836635 0.024362
v 0.727868 0.043460 -0.735813
v 1.513831 0.005675 -0.312938
v -0.398100 0.050548 -0.604266
v 0.887018 0.741824 -0.702128
v 1.607982 0.592097 -0.300675
v 1.642091 0.641719 0.361288
v 1.292890 0.537395 0.824085
v 0.547292 0.825747 0.704806
vt 0.616213 0.190378
vt 0.679675 0.244846
vt 0.633447 0.353808
vt 0.617608 0.435092
vt 0.678168 0.616790
vt 0.608687 0.622230
vt 0.662160 0.710115
vt 0.577713 0.744182
vt 0.361977 0.148971
vt 0.638420 0.028967
vt 0.816267 0.315584
vt 0.747121 0.097247
vt 0.936386 0.090557
vt 0.298880 0.548159
vt 0.297871 0.665093
vt 0.213965 0.735913
vt 0.332526 0.172133
vt 0.204011 0.398881
vt 0.014878 0.244834
vt 0.412262 0.745844
vt 0.454331 0.584243
vt 0.377972 0.488760
vt 0.355417 0.621805
vt 0.375168 0.257395
vt 0.447482 0.381918
vt 0.426724 0.001632
vt 0.872573 0.379422
vt 0.951241 0.299328
vt 0.885894 0.425365
vt 0.978933 0.488364
vt 0.786274 0.681322
vt 0.684986 0.556153
vt 0.737073 0.440483
vt 0.097424 0.648403
vt 0.033712 0.702203
vt 0.008194 0.475613
vt 0.111921 0.438743
vt 0.011310 0.118988
vt 0.146914 0.058458
vt 0.344953 0.077633
vt 0.706390 0.277976
vt 0.045124 0.363111
vt 0.353418 0.033786
vt 0.965931 0.673036
vt 0.258736 0.010351
vt 0.297593 0.434141
vt 0.306509 0.352896
vn 0.2022 -0.5239 -0.8274
vn -0.0636 -0.9090 -0.4118
vn -0.5315 -0.5519 -0.6425
vn -0.3355 -0.9194 0.2050
vn -0.7864 -0.5483 0.2845
vn -0.0974 -0.6808 0.7259
vn -0.4754 -0.2286 0.8495
vn 0.3083 0.6118 -0.7284
vn 0.6849 -0.6126 -0.3945
vn 0.8630 0.3866 0.3250
vn 0.5443 -0.6729 0.5009
vn 0.3092 0.9504 -0.0330
vn -0.0445 0.5722 -0.8189
vn -0.3193 0.9437 0.0864
vn -0.3332 0.5773 0.7454
vn -0.9660 0.2585 0.0056
vn -0.5173 0.6177 -0.5923
vn 0.8103 0.3432 -0.4749
vn 0.4669 0.2195 0.8566
vn 0.0414 0.8495 0.5259
vn 0.1364 -0.9752 0.1742
usemtl Material.004
s 1
f 14/1/1 2/2/2 16/3/3
f 16/4/3 12/5/4 8/6/5
f 7/7/6 6/8/7 8/6/5 12/5/4
f 17/9/8 15/10/9 14/1/1
f 19/11/10 3/12/11 15/13/9
f 2/14/2 14/15/1 15/16/9
f 13/17/12 10/18/13 4/19/14
f 1/20/15 9/21/16 6/8/7
f 5/22/17 9/21/16 4/23/14
f 14/1/1 16/3/3 10/24/13
f 10/24/13 16/3/3 5/25/17
f 10/24/13 17/9/8 14/1/1
f 18/26/18 15/10/9 17/9/8
f 13/27/12 19/11/10 18/28/18
f 6/29/7 7/30/6 20/31/19
f 21/32/20 1/33/15 20/31/19
f 11/34/21 3/35/11 7/36/6
f 2/14/2 11/34/21 12/37/4
f 4/19/14 1/38/15 21/39/20
f 13/17/12 4/19/14 21/39/20
f 19/40/10 13/17/12 21/39/20
f 5/22/17 16/4/3 9/21/16
f 1/33/15 6/29/7 20/31/19
f 11/34/21 15/16/9 3/35/11
f 9/21/16 16/4/3 8/6/5
f 19/11/10 20/41/19 3/12/11
f 11/34/21 2/14/2 15/16/9
f 4/19/14 10/18/13 5/42/17
f 9/21/16 8/6/5 6/8/7
f 1/20/15 4/23/14 9/21/16
f 18/28/18 19/11/10 15/13/9
f 17/9/8 13/43/12 18/26/18
f 20/31/19 7/30/6 3/44/11
f 19/40/10 21/39/20 20/45/19
f 7/36/6 12/37/4 11/34/21
f 16/46/3 2/14/2 12/37/4
f 17/47/8 10/18/13 13/17/12
