# Blender v2.79 (sub 0) OBJ File: 'RockSet.blend'
# www.blender.org
mtllib Rock4_30.mtl
o Icosphere
v 0.702740 -0.283776 -0.751416
v -0.981090 -0.074842 0.908658
v -0.485956 -0.142301 -0.911623
v 1.560977 0.160297 0.063724
v 0.645567 0.635001 1.337372
v 0.017420 -0.007137 1.474132
v -1.320738 0.630540 1.106292
v -1.483255 0.232683 -0.251542
v -0.580614 0.375844 -1.455761
v -1.236226 0.944292 -0.405913
v 1.177281 0.689376 -1.042935
v 0.897090 1.270167 0.380566
v 0.061364 1.337247 0.747452
v -0.207018 1.124861 -1.137971
vt 0.168765 0.346200
vt 0.042092 0.044179
vt 0.338012 0.237811
vt 0.845512 0.213832
vt 0.771312 0.063102
vt 0.901222 0.084630
vt 0.900339 0.700745
vt 0.715484 0.645152
vt 0.900854 0.558655
vt 0.603632 0.516257
vt 0.434141 0.536061
vt 0.513238 0.399222
vt 0.454494 0.115460
vt 0.504748 0.310427
vt 0.380310 0.280309
vt 0.031060 0.268444
vt 0.227892 0.000428
vt 0.354695 0.055517
vt 0.463591 0.012288
vt 0.676748 0.156049
vt 0.848373 0.379259
vt 0.977944 0.261311
vt 0.728833 0.273436
vt 0.601115 0.736010
vt 0.464346 0.733025
vt 0.668898 0.668873
vt 0.668898 0.494906
vt 0.308690 0.726515
vt 0.142218 0.702668
vt 0.272179 0.551200
vt 0.645747 0.367556
vt 0.742955 0.379530
vt 0.002655 0.475571
vt 0.122750 0.405418
vt 0.982135 0.435527
vt 0.270659 0.387051
vn 0.3020 -0.8654 -0.3998
vn 0.0623 -0.5535 0.8305
vn -0.2544 -0.8887 -0.3814
vn -0.9081 -0.3615 -0.2114
vn -0.4488 -0.8128 0.3713
vn -0.7368 0.2593 0.6243
vn 0.6832 0.2600 -0.6823
vn 0.9354 -0.3292 0.1289
vn 0.4750 0.2084 0.8549
vn 0.5413 0.8236 0.1690
vn -0.0541 0.9208 0.3861
vn -0.3408 -0.1282 -0.9314
vn -0.7060 0.6598 -0.2574
vn -0.0825 0.7832 -0.6163
usemtl Material.002
s 1
f 1/1/1 6/2/2 3/3/3
f 8/4/4 2/5/5 7/6/6
f 2/7/5 6/8/2 7/9/6
f 1/10/1 11/11/7 4/12/8
f 5/13/9 12/14/10 13/15/11
f 1/1/1 4/16/8 6/2/2
f 3/3/3 2/17/5 8/18/4
f 3/3/3 6/2/2 2/17/5
f 6/19/2 4/20/8 5/13/9
f 9/21/12 8/4/4 10/22/13
f 9/21/12 3/23/3 8/4/4
f 11/11/7 9/24/12 14/25/14
f 11/11/7 1/10/1 9/24/12
f 1/10/1 3/26/3 9/24/12
f 5/13/9 4/20/8 12/14/10
f 6/8/2 5/27/9 7/9/6
f 8/4/4 7/6/6 10/22/13
f 9/28/12 10/29/13 14/30/14
f 4/20/8 11/31/7 12/14/10
f 7/9/6 5/27/9 13/32/11
f 14/30/14 13/33/11 12/34/10
f 14/30/14 10/29/13 13/33/11
f 10/35/13 7/9/6 13/32/11
f 12/34/10 11/36/7 14/30/14
