# Blender v2.79 (sub 0) OBJ File: 'RockSet.blend'
# www.blender.org
mtllib Rock2.mtl
o Icosphere.001
v -0.760514 -0.506309 -0.234137
v 0.260502 -0.366974 0.630376
v -1.168154 -0.292360 0.875202
v -2.172815 -0.362901 -0.160461
v -1.212279 -0.303485 -1.251734
v 0.267896 -0.225070 -0.892638
v -0.421972 0.275263 0.907332
v -1.772923 0.239866 0.485618
v -1.873874 0.268023 -0.922146
v -0.468042 0.288323 -1.232558
v 0.396915 0.335169 -0.224329
v -0.742275 0.582381 -0.174383
v -0.158345 -0.555452 0.258919
v -0.437140 -0.365772 0.891877
v -1.003474 -0.463151 0.414879
v -0.155213 -0.506484 -0.644666
v 0.449773 -0.408707 -0.165201
v -1.846457 -0.409197 0.568666
v -1.519229 -0.475301 -0.200681
v -1.849012 -0.416895 -0.895539
v -1.028986 -0.508672 -0.855146
v -0.464569 -0.292847 -1.145014
v 0.485246 0.065794 -0.600604
v 0.584604 -0.031671 0.295473
v -0.050034 -0.041929 0.806457
v -0.782712 -0.038494 1.061205
v -1.559070 -0.059827 0.856274
v -2.229925 -0.044720 0.285501
v -2.247642 -0.040567 -0.606503
v -1.655947 -0.039344 -1.301820
v -0.837245 0.007225 -1.446378
v -0.033535 0.097972 -1.250819
v 0.150947 0.342496 0.437066
v -1.144547 0.315119 0.919014
v -2.092620 0.319304 -0.176076
v -1.175440 0.264345 -1.211920
v 0.150941 0.399342 -0.854312
v -0.028308 0.530036 -0.225518
v -0.581514 0.576387 0.532542
v -1.437670 0.541835 0.278427
v -1.377649 0.451649 -0.589970
v -0.561649 0.436259 -0.758945
vt 0.573889 0.240299
vt 0.516462 0.364522
vt 0.452699 0.225238
vt 0.465378 0.444680
vt 0.609159 0.444428
vt 0.536173 0.112488
vt 0.668167 0.168770
vt 0.668330 0.325220
vt 0.710921 0.444680
vt 0.840293 0.457786
vt 0.729457 0.573059
vt 0.320549 0.157507
vt 0.363086 0.280708
vt 0.261443 0.223450
vt 0.921714 0.135623
vt 0.998804 0.241134
vt 0.850727 0.255318
vt 0.606254 0.705944
vt 0.664972 0.811772
vt 0.514898 0.787042
vt 0.580523 0.444680
vt 0.600592 0.574443
vt 0.455463 0.505049
vt 0.360860 0.408793
vt 0.235361 0.482851
vt 0.261281 0.357278
vt 0.234531 0.096367
vt 0.782553 0.114937
vt 0.486373 0.646344
vt 0.954223 0.550516
vt 1.000000 0.679753
vt 0.875244 0.640980
vt 0.157199 0.297471
vt 0.114379 0.412447
vt 0.028193 0.289056
vt 0.104990 0.078468
vt 0.127821 0.174038
vt 0.000000 0.149564
vt 0.201248 0.836679
vt 0.068385 0.842228
vt 0.149939 0.726058
vt 0.316811 0.612931
vt 0.281414 0.731498
vt 0.218998 0.598307
vt 0.794794 0.722890
vt 0.903933 0.770326
vt 0.795222 0.794662
vt 0.392370 0.337824
vt 0.363086 0.211155
vt 0.949610 0.445029
vt 0.390479 0.087507
vt 0.499323 0.000000
vt 0.692243 0.667166
vt 0.638725 0.025445
vt 0.692523 0.512429
vt 0.171273 0.000000
vt 0.914236 0.337575
vt 0.319367 0.048335
vt 0.744625 0.000000
vt 0.668330 0.108933
vt 0.892225 0.008256
vt 0.392637 0.582920
vt 0.692523 0.702948
vt 0.702041 0.236722
vt 0.784659 0.326554
vt 0.407559 0.705829
vt 0.312580 0.842193
vt 0.363086 0.472086
vt 0.000000 0.543790
vt 0.150817 0.482851
vt 0.099982 0.594397
vt 0.000337 0.407321
vt 0.073680 0.475780
vt 0.000894 0.697496
vt 0.679723 0.337033
vt 0.274471 0.487100
vn -0.0426 -0.9991 0.0087
vn 0.0941 -0.9879 0.1231
vn -0.0595 -0.9815 0.1817
vn 0.5684 -0.5372 0.6231
vn 0.7025 -0.7062 -0.0879
vn -0.1012 -0.9947 0.0181
vn -0.0058 -0.9684 -0.2491
vn 0.1781 -0.9481 -0.2635
vn 0.9326 0.1000 0.3467
vn -0.1552 -0.6859 0.7109
vn 0.1390 -0.6680 0.7310
vn 0.0130 -0.0624 0.9980
vn -0.6980 -0.7160 0.0101
vn -0.4602 -0.7154 0.5257
vn -0.8998 0.0954 0.4258
vn -0.0769 -0.7001 -0.7099
vn -0.4685 -0.7747 -0.4245
vn -0.4530 0.0154 -0.8913
vn 0.6446 -0.4981 -0.5800
vn 0.1976 -0.7255 -0.6592
vn 0.4651 0.0955 -0.8801
vn 0.4757 0.1275 0.8703
vn -0.4697 0.0208 0.8825
vn -0.9416 0.0295 -0.3353
vn 0.0392 0.0066 -0.9992
vn 0.9312 0.1385 -0.3370
vn 0.2850 0.5159 0.8079
vn 0.5213 0.7194 0.4590
vn 0.1010 0.9414 0.3218
vn -0.5425 0.6475 0.5351
vn -0.2342 0.5940 0.7696
vn -0.2812 0.9402 0.1920
vn -0.5191 0.7074 -0.4797
vn -0.6507 0.7591 0.0218
vn -0.1452 0.9665 -0.2117
vn 0.0824 0.7674 -0.6358
vn -0.1323 0.7880 -0.6013
vn -0.0041 0.9643 -0.2647
vn 0.7015 0.7126 -0.0027
vn 0.4784 0.7687 -0.4244
vn 0.2417 0.9700 -0.0261
vn -0.0129 0.9934 -0.1139
usemtl Material.005
s 1
f 1/1/1 13/2/2 15/3/3
f 2/4/4 13/2/2 17/5/5
f 1/1/1 15/3/3 19/6/6
f 1/1/1 19/6/6 21/7/7
f 1/1/1 21/7/7 16/8/8
f 2/9/4 17/10/5 24/11/9
f 3/12/10 14/13/11 26/14/12
f 4/15/13 18/16/14 28/17/15
f 5/18/16 20/19/17 30/20/18
f 6/21/19 22/22/20 32/23/21
f 2/24/4 24/25/9 25/26/22
f 3/12/10 26/14/12 27/27/23
f 4/15/13 28/17/15 29/28/24
f 5/18/16 30/20/18 31/29/25
f 6/30/19 32/31/21 23/32/26
f 7/33/27 33/34/28 39/35/29
f 8/36/30 34/37/31 40/38/32
f 9/39/33 35/40/34 41/41/35
f 10/42/36 36/43/37 42/44/38
f 11/45/39 37/46/40 38/47/41
f 15/3/3 14/48/11 3/49/10
f 15/3/3 13/2/2 14/48/11
f 13/2/2 2/4/4 14/48/11
f 17/10/5 16/50/8 6/30/19
f 17/5/5 13/2/2 16/8/8
f 13/2/2 1/1/1 16/8/8
f 19/6/6 18/51/14 4/52/13
f 19/6/6 15/3/3 18/51/14
f 15/3/3 3/49/10 18/51/14
f 21/53/7 20/19/17 5/18/16
f 21/7/7 19/6/6 20/54/17
f 19/6/6 4/52/13 20/54/17
f 16/55/8 22/22/20 6/21/19
f 16/55/8 21/53/7 22/22/20
f 21/53/7 5/18/16 22/22/20
f 24/11/9 23/32/26 11/45/39
f 24/11/9 17/10/5 23/32/26
f 17/10/5 6/30/19 23/32/26
f 26/14/12 25/26/22 7/33/27
f 26/14/12 14/13/11 25/26/22
f 14/13/11 2/24/4 25/26/22
f 28/56/15 27/27/23 8/36/30
f 28/17/15 18/16/14 27/57/23
f 18/58/14 3/12/10 27/27/23
f 30/59/18 29/28/24 9/60/33
f 30/59/18 20/61/17 29/28/24
f 20/61/17 4/15/13 29/28/24
f 32/23/21 31/29/25 10/62/36
f 32/23/21 22/22/20 31/29/25
f 22/22/20 5/18/16 31/29/25
f 25/26/22 33/34/28 7/33/27
f 25/26/22 24/25/9 33/34/28
f 24/11/9 11/45/39 33/63/28
f 27/27/23 34/37/31 8/36/30
f 27/27/23 26/14/12 34/37/31
f 26/14/12 7/33/27 34/37/31
f 29/28/24 35/64/34 9/60/33
f 29/28/24 28/17/15 35/64/34
f 28/17/15 8/65/30 35/64/34
f 31/29/25 36/66/37 10/62/36
f 31/29/25 30/20/18 36/66/37
f 30/67/18 9/39/33 36/43/37
f 23/32/26 37/46/40 11/45/39
f 23/32/26 32/31/21 37/46/40
f 32/23/21 10/62/36 37/68/40
f 39/69/29 38/70/41 12/71/42
f 39/35/29 33/34/28 38/72/41
f 33/34/28 11/73/39 38/72/41
f 40/74/32 39/69/29 12/71/42
f 40/38/32 34/37/31 39/35/29
f 34/37/31 7/33/27 39/35/29
f 41/41/35 40/74/32 12/71/42
f 41/41/35 35/40/34 40/74/32
f 35/64/34 8/65/30 40/75/32
f 42/44/38 41/41/35 12/71/42
f 42/44/38 36/43/37 41/41/35
f 36/43/37 9/39/33 41/41/35
f 38/70/41 42/44/38 12/71/42
f 38/70/41 37/76/40 42/44/38
f 37/76/40 10/42/36 42/44/38
