# Blender v2.79 (sub 0) OBJ File: 'RockSet.blend'
# www.blender.org
mtllib Rock6_30.mtl
o Icosphere.002
v 0.098062 -0.160879 0.557747
v -0.022217 -0.317973 -0.538288
v 1.149023 0.033847 0.029814
v 1.082893 0.324194 -0.812886
v 0.343582 0.384919 0.762560
v -1.028342 -0.041778 0.383314
v -1.097134 0.282030 -1.108394
v 0.330825 0.051732 -1.381210
v 1.365545 0.557891 -0.233893
v -1.285190 0.602580 -0.093269
v 0.113442 1.049070 -0.070726
v -0.542490 0.895745 0.541436
v -0.623951 0.861055 -1.000174
v 0.336899 0.666091 -1.154772
vt 0.879522 0.257923
vt 0.715321 0.373383
vt 0.696915 0.241068
vt 0.492176 0.000000
vt 0.655709 0.091504
vt 0.431173 0.169287
vt 0.630207 0.738788
vt 0.453922 0.728953
vt 0.504553 0.539157
vt 0.629636 0.328772
vt 0.786987 0.373383
vt 0.963704 0.434583
vt 0.724073 0.457344
vt 0.238812 0.209821
vt 0.051286 0.315063
vt 0.039067 0.140305
vt 0.331983 0.345900
vt 0.114256 0.020613
vt 0.679921 0.632117
vt 0.659659 0.492584
vt 0.589156 0.376496
vt 0.009601 0.486186
vt 0.131751 0.380752
vt 0.131429 0.500548
vt 0.317288 0.531720
vt 0.377928 0.052649
vt 0.196140 0.667018
vt 0.703415 0.046512
vt 0.890277 0.089952
vt 0.256335 0.744227
vt 0.377862 0.452213
vt 0.452294 0.373383
vt 0.988208 0.625279
vt 0.818681 0.650312
vt 0.703404 0.566584
vt 0.040972 0.744056
vn -0.6429 -0.5511 0.5319
vn 0.0743 -0.7617 0.6436
vn 0.3054 0.1585 0.9389
vn 0.7385 -0.5927 0.3212
vn 0.9207 0.3860 0.0579
vn -0.9161 0.3774 0.1350
vn -0.7183 -0.1928 -0.6684
vn 0.1710 0.9778 0.1210
vn -0.2763 0.7807 -0.5605
vn -0.0154 -0.9855 -0.1690
vn 0.2258 -0.4146 -0.8815
vn 0.7864 -0.1013 -0.6093
vn 0.2514 0.6612 -0.7068
vn -0.2792 0.6817 0.6763
usemtl Material.006
s 1
f 6/1/1 1/2/2 5/3/3
f 3/4/4 9/5/5 5/6/3
f 6/7/1 10/8/6 7/9/7
f 5/6/3 9/5/5 11/10/8
f 7/11/7 10/12/6 13/13/9
f 2/14/10 3/15/4 1/16/2
f 3/15/4 2/14/10 8/17/11
f 2/14/10 1/16/2 6/18/1
f 2/19/10 6/7/1 7/9/7
f 2/20/10 7/9/7 8/21/11
f 9/22/5 3/23/4 4/24/12
f 3/23/4 8/25/11 4/24/12
f 1/26/2 3/4/4 5/6/3
f 4/24/12 8/25/11 14/27/13
f 6/1/1 12/28/14 10/29/6
f 6/1/1 5/3/3 12/28/14
f 8/25/11 13/30/9 14/27/13
f 8/21/11 7/9/7 13/31/9
f 4/24/12 14/27/13 9/22/5
f 12/32/14 5/6/3 11/10/8
f 13/13/9 12/33/14 11/34/8
f 13/13/9 10/12/6 12/33/14
f 14/35/13 13/13/9 11/34/8
f 11/36/8 9/22/5 14/27/13
