# Blender v2.79 (sub 0) OBJ File: 'RockSet.blend'
# www.blender.org
mtllib Rock6_100.mtl
o Icosphere.002
v 0.002077 -0.278836 -0.327358
v 0.955462 0.006036 0.244854
v -0.378429 -0.024141 0.620472
v -1.154746 0.066767 -0.410461
v -0.364410 0.119909 -1.217623
v 0.830052 0.060162 -0.811735
v 0.323374 0.593528 0.603568
v -0.996866 0.664674 0.262879
v -0.986581 0.663710 -0.902774
v 0.297533 0.560217 -1.255050
v 1.173404 0.645809 -0.304337
v -0.003962 1.071971 -0.317228
v 0.486691 -0.168280 -0.023865
v 0.356356 -0.078759 0.570127
v -0.201312 -0.243159 0.202433
v 0.482085 -0.201837 -0.626195
v 1.042071 -0.005743 -0.314228
v -0.940995 -0.082587 0.232787
v -0.654834 -0.218042 -0.324900
v -0.910325 0.010211 -0.913796
v -0.202319 -0.164537 -0.861578
v 0.357897 -0.051941 -1.211883
v 1.235443 0.342033 -0.527539
v 1.298668 0.316923 0.022593
v 0.791559 0.349533 0.512242
v -0.000055 0.317029 0.785673
v -0.804793 0.317067 0.574565
v -1.267079 0.362727 -0.023470
v -1.215080 0.430360 -0.774115
v -0.801380 0.327280 -1.211859
v 0.019228 0.308002 -1.429212
v 0.721312 0.326427 -1.101483
v 0.981926 0.592384 0.143208
v -0.497002 0.861674 0.590866
v -1.158864 0.725775 -0.325281
v -0.362458 0.708251 -1.215801
v 0.833392 0.641137 -0.760377
v 0.584648 0.832450 -0.314406
v 0.206291 0.942991 0.244267
v -0.584868 0.968716 0.023509
v -0.582350 0.966080 -0.658253
v 0.166214 0.874890 -0.772050
vt 0.207990 0.185173
vt 0.106738 0.233059
vt 0.121794 0.102514
vt 0.010298 0.286371
vt 0.110157 0.356274
vt 0.256608 0.091294
vt 0.320139 0.217536
vt 0.223067 0.292450
vt 0.010496 0.380752
vt 0.811689 0.302155
vt 0.715321 0.373383
vt 0.696915 0.241068
vt 0.577157 0.665703
vt 0.647277 0.762305
vt 0.494911 0.750374
vt 0.557917 0.445423
vt 0.586140 0.550221
vt 0.483178 0.489087
vt 0.204107 0.449560
vt 0.321859 0.489313
vt 0.203686 0.545968
vt 0.492176 0.000000
vt 0.604964 0.032970
vt 0.492039 0.110085
vt 0.827790 0.173152
vt 0.453612 0.608663
vt 0.504148 0.373383
vt 0.077079 0.466385
vt 0.477209 0.221987
vt 0.603514 0.137646
vt 0.578100 0.308256
vt 0.998730 0.506122
vt 1.000000 0.632429
vt 0.891854 0.566860
vt 0.786987 0.373383
vt 0.897281 0.423223
vt 0.768493 0.488529
vt 0.222888 0.652240
vt 0.256335 0.744227
vt 0.117618 0.710402
vt 0.000000 0.533416
vt 0.092443 0.592665
vt 0.025728 0.632334
vt 0.000000 0.158152
vt 0.045983 0.047345
vt 0.218249 0.380533
vt 0.679921 0.632117
vt 0.166901 0.000000
vt 0.659659 0.492584
vt 0.377741 0.129197
vt 0.336941 0.344390
vt 0.629563 0.377976
vt 0.005354 0.417220
vt 0.131751 0.380752
vt 0.377741 0.194066
vt 0.377928 0.052649
vt 0.926366 0.109864
vt 0.825430 0.054173
vt 0.926682 0.265044
vt 0.384360 0.566640
vt 0.318019 0.624426
vt 0.696915 0.116106
vt 0.703415 0.046512
vt 0.452294 0.373383
vt 0.377741 0.689139
vt 0.999839 0.404285
vt 0.377862 0.452213
vt 0.678256 0.223305
vt 0.666930 0.343687
vt 0.877034 0.696165
vt 0.776446 0.617125
vt 0.703404 0.566584
vt 0.679921 0.426347
vt 0.040980 0.744116
vn 0.0360 -0.9986 -0.0392
vn 0.2305 -0.9662 0.1153
vn -0.0407 -0.9700 0.2397
vn 0.5625 -0.6897 0.4560
vn 0.6051 -0.7892 -0.1047
vn -0.2759 -0.9584 -0.0731
vn -0.1102 -0.9243 -0.3655
vn 0.2612 -0.9503 -0.1691
vn 0.9455 -0.0436 0.3225
vn -0.2027 -0.6168 0.7605
vn 0.2463 -0.7013 0.6689
vn 0.0580 -0.0129 0.9982
vn -0.7838 -0.6132 -0.0978
vn -0.5841 -0.7087 0.3957
vn -0.9620 -0.0276 0.2716
vn -0.2083 -0.6514 -0.7296
vn -0.5192 -0.7050 -0.4832
vn -0.4916 -0.0811 -0.8670
vn 0.6115 -0.6321 -0.4758
vn 0.2658 -0.6763 -0.6870
vn 0.6373 0.0500 -0.7689
vn 0.5372 0.1312 0.8332
vn -0.5575 -0.0762 0.8266
vn -0.9123 0.0601 -0.4050
vn 0.0326 -0.0566 -0.9978
vn 0.9040 -0.0562 -0.4238
vn 0.3087 0.5306 0.7894
vn 0.5313 0.7161 0.4527
vn 0.2542 0.8983 0.3583
vn -0.7009 0.5288 0.4786
vn -0.2377 0.6834 0.6902
vn -0.2800 0.9486 0.1471
vn -0.5775 0.6189 -0.5323
vn -0.7487 0.6628 -0.0024
vn -0.2327 0.9359 -0.2644
vn 0.3195 0.5649 -0.7608
vn -0.1339 0.6682 -0.7318
vn 0.2166 0.8992 -0.3801
vn 0.6867 0.7239 -0.0662
vn 0.5046 0.7208 -0.4751
vn 0.3576 0.9324 -0.0522
vn 0.1193 0.9905 -0.0683
usemtl Material.006
s 1
f 1/1/1 13/2/2 15/3/3
f 2/4/4 13/2/2 17/5/5
f 1/1/1 15/3/3 19/6/6
f 1/1/1 19/6/6 21/7/7
f 1/1/1 21/7/7 16/8/8
f 2/4/4 17/5/5 24/9/9
f 3/10/10 14/11/11 26/12/12
f 4/13/13 18/14/14 28/15/15
f 5/16/16 20/17/17 30/18/18
f 6/19/19 22/20/20 32/21/21
f 2/22/4 24/23/9 25/24/22
f 3/10/10 26/12/12 27/25/23
f 4/13/13 28/15/15 29/26/24
f 5/16/16 30/18/18 31/27/25
f 6/19/19 32/21/21 23/28/26
f 7/29/27 33/30/28 39/31/29
f 8/32/30 34/33/31 40/34/32
f 9/35/33 35/36/34 41/37/35
f 10/38/36 36/39/37 42/40/38
f 11/41/39 37/42/40 38/43/41
f 15/3/3 14/44/11 3/45/10
f 15/3/3 13/2/2 14/44/11
f 13/2/2 2/4/4 14/44/11
f 17/5/5 16/8/8 6/46/19
f 17/5/5 13/2/2 16/8/8
f 13/2/2 1/1/1 16/8/8
f 19/47/6 18/14/14 4/13/13
f 19/6/6 15/3/3 18/48/14
f 15/3/3 3/45/10 18/48/14
f 21/49/7 20/17/17 5/16/16
f 21/7/7 19/6/6 20/50/17
f 19/47/6 4/13/13 20/17/17
f 16/8/8 22/51/20 6/46/19
f 16/8/8 21/7/7 22/51/20
f 21/49/7 5/16/16 22/52/20
f 24/53/9 23/28/26 11/41/39
f 24/53/9 17/54/5 23/28/26
f 17/54/5 6/19/19 23/28/26
f 26/55/12 25/24/22 7/29/27
f 26/55/12 14/56/11 25/24/22
f 14/56/11 2/22/4 25/24/22
f 28/57/15 27/25/23 8/58/30
f 28/57/15 18/59/14 27/25/23
f 18/59/14 3/10/10 27/25/23
f 30/18/18 29/26/24 9/60/33
f 30/18/18 20/17/17 29/26/24
f 20/17/17 4/13/13 29/26/24
f 32/21/21 31/61/25 10/38/36
f 32/21/21 22/20/20 31/61/25
f 22/52/20 5/16/16 31/27/25
f 25/24/22 33/30/28 7/29/27
f 25/24/22 24/23/9 33/30/28
f 24/23/9 11/62/39 33/30/28
f 27/25/23 34/63/31 8/58/30
f 27/25/23 26/12/12 34/63/31
f 26/55/12 7/29/27 34/64/31
f 29/26/24 35/65/34 9/60/33
f 29/26/24 28/15/15 35/65/34
f 28/66/15 8/32/30 35/36/34
f 31/61/25 36/39/37 10/38/36
f 31/27/25 30/18/18 36/67/37
f 30/18/18 9/60/33 36/67/37
f 23/28/26 37/42/40 11/41/39
f 23/28/26 32/21/21 37/42/40
f 32/21/21 10/38/36 37/42/40
f 39/31/29 38/68/41 12/69/42
f 39/31/29 33/30/28 38/68/41
f 33/30/28 11/62/39 38/68/41
f 40/34/32 39/70/29 12/71/42
f 40/34/32 34/33/31 39/70/29
f 34/64/31 7/29/27 39/31/29
f 41/37/35 40/34/32 12/71/42
f 41/37/35 35/36/34 40/34/32
f 35/36/34 8/32/30 40/34/32
f 42/72/38 41/37/35 12/71/42
f 42/72/38 36/73/37 41/37/35
f 36/73/37 9/35/33 41/37/35
f 38/43/41 42/40/38 12/74/42
f 38/43/41 37/42/40 42/40/38
f 37/42/40 10/38/36 42/40/38
