# Blender v2.79 (sub 0) OBJ File: 'RockSet.blend'
# www.blender.org
mtllib Rock3_100.mtl
o Cube_Cube.001
v -1.856470 -0.486998 0.280727
v -1.856470 -0.486998 -1.186181
v 0.082764 -0.399833 -1.207849
v 0.143722 -0.486679 0.279959
v -1.852299 0.186616 0.268436
v -1.842720 0.193856 -1.170847
v 0.056956 0.259262 -1.144976
v 0.146101 0.197760 0.259528
v -1.982823 0.164354 -0.304291
v -2.012539 0.251458 -0.694004
v -2.015415 -0.030419 -1.302760
v -2.015415 -0.258709 -1.302760
v -2.015415 -0.541426 -0.697212
v -2.015415 -0.541426 -0.208242
v -2.015415 -0.258709 0.397306
v -2.015415 -0.030419 0.397306
v -1.189803 0.252298 -1.302759
v -0.532366 0.258842 -1.298367
v 0.153440 0.075855 -1.232501
v 0.145653 -0.105992 -1.275765
v -0.534093 -0.525607 -1.306784
v -1.182183 -0.479251 -1.318940
v 0.262440 0.245772 -0.719116
v 0.302475 0.252298 -0.208242
v 0.303679 -0.027312 0.391738
v 0.314276 -0.230181 0.344046
v 0.302464 -0.541410 -0.208246
v 0.281637 -0.511340 -0.704865
v -0.512326 0.251838 0.308181
v -1.188771 0.252254 0.388794
v -1.189804 -0.541426 0.397308
v -0.519314 -0.541499 0.386328
v -2.277184 -0.012277 -0.144244
v -2.277184 -0.276851 -0.144244
v -2.277184 -0.012277 -0.761210
v -2.277184 -0.276851 -0.761210
v -1.277060 -0.012277 -1.494756
v -1.277060 -0.276851 -1.494755
v -0.521131 0.048177 -1.454180
v -0.477624 -0.233116 -1.491110
v 0.509557 0.026946 -0.735690
v 0.510520 -0.208676 -0.770165
v 0.564245 -0.012275 -0.144248
v 0.566219 -0.271752 -0.153377
v -0.434258 -0.012322 0.581431
v -0.388680 -0.277685 0.453693
v -1.277060 -0.012277 0.589302
v -1.273949 -0.276911 0.580367
v -1.242785 -0.631064 -0.144244
v -0.470155 -0.631064 -0.144244
v -1.242761 -0.630866 -0.761262
v -0.471706 -0.628826 -0.761780
v -0.469664 0.341915 -0.148296
v -1.242786 0.341938 -0.144242
v -0.470155 0.341936 -0.761210
v -1.242123 0.341743 -0.760472
vt 0.456535 0.230860
vt 0.457451 0.338782
vt 0.357572 0.315244
vt 0.338844 0.217746
vt 0.766740 0.463001
vt 0.674238 0.517901
vt 0.683407 0.392865
vt 0.774279 0.339077
vt 0.766695 0.114771
vt 0.672449 0.144225
vt 0.674514 0.034546
vt 0.767113 0.000000
vt 0.224773 0.106021
vt 0.217789 0.000000
vt 0.315836 0.024256
vt 0.338605 0.120093
vt 0.119086 0.573606
vt 0.117079 0.680588
vt 0.016447 0.659886
vt 0.000000 0.561569
vt 0.555786 0.445752
vt 0.543727 0.339077
vt 0.641598 0.360180
vt 0.670675 0.453090
vt 0.458491 0.000000
vt 0.456913 0.107914
vt 0.339143 0.120306
vt 0.358469 0.022925
vt 0.641839 0.026243
vt 0.635306 0.140355
vt 0.568255 0.108255
vt 0.554563 0.000295
vt 0.672449 0.218130
vt 0.567878 0.231202
vt 0.643773 0.313066
vt 0.553523 0.339077
vt 0.990319 0.453798
vt 0.883613 0.444761
vt 0.868973 0.359157
vt 0.966704 0.356837
vt 0.963713 0.647428
vt 0.869032 0.671395
vt 0.883266 0.557657
vt 0.990020 0.551211
vt 0.772950 0.673847
vt 0.772509 0.583226
vt 0.685941 0.674413
vt 0.672605 0.595693
vt 1.000000 0.161394
vt 0.892089 0.127978
vt 0.866898 0.001775
vt 0.973289 0.038485
vt 0.992074 0.319465
vt 0.905485 0.322586
vt 0.896362 0.228668
vt 0.999931 0.239448
vt 0.804439 0.336588
vt 0.777110 0.225017
vt 0.710721 0.324335
vt 0.672651 0.231348
vt 0.206417 0.340580
vt 0.225959 0.236669
vt 0.338844 0.218051
vt 0.316155 0.316109
vt 0.024223 0.317591
vt 0.000748 0.221023
vt 0.112061 0.228872
vt 0.119607 0.338742
vt 0.000000 0.121382
vt 0.111811 0.105809
vt 0.028482 0.025890
vt 0.120382 0.000299
vt 0.116546 0.343640
vt 0.119061 0.450653
vt 0.000186 0.463121
vt 0.016866 0.364902
vt 0.300193 0.362151
vt 0.328475 0.460105
vt 0.228490 0.449648
vt 0.211500 0.340580
vt 0.328508 0.557487
vt 0.228508 0.572528
vt 0.300293 0.654296
vt 0.203984 0.681502
vt 0.563075 0.675527
vt 0.562982 0.568310
vt 0.672605 0.531571
vt 0.659731 0.646423
vt 0.368136 0.661738
vt 0.338844 0.569598
vt 0.450253 0.574149
vt 0.463563 0.665311
vt 0.338923 0.467697
vt 0.443260 0.452239
vt 0.363690 0.381119
vt 0.447824 0.345548
vn -0.9077 -0.3638 -0.2088
vn -0.6058 -0.3391 -0.7197
vn -0.3201 -0.8253 -0.4652
vn -0.4449 -0.8862 -0.1294
vn 0.1775 -0.2055 -0.9624
vn 0.5792 -0.1263 -0.8053
vn 0.4424 -0.6837 -0.5804
vn 0.1137 -0.8101 -0.5750
vn 0.9203 -0.3556 0.1629
vn 0.6117 -0.3588 0.7050
vn 0.3450 -0.7429 0.5737
vn 0.4834 -0.8707 0.0907
vn -0.0855 -0.3312 0.9396
vn -0.6054 -0.3330 0.7229
vn -0.3423 -0.8139 0.4694
vn -0.0500 -0.8135 0.5794
vn 0.0808 -0.9883 -0.1291
vn 0.5124 -0.8280 -0.2279
vn -0.0789 0.9949 -0.0630
vn -0.0808 0.8466 -0.5260
vn -0.3360 0.8254 -0.4537
vn -0.4281 0.9008 -0.0726
vn -0.9077 -0.3638 0.2088
vn -0.4508 -0.8847 0.1189
vn -0.3353 0.8581 0.3887
vn -0.4125 0.9037 0.1145
vn -0.8809 0.4242 0.2097
vn -0.5997 0.3758 0.7065
vn -0.8956 0.4009 -0.1926
vn -0.6052 0.3400 -0.7198
vn -0.1159 -0.3052 -0.9452
vn -0.0654 -0.8270 -0.5584
vn -0.1231 0.3250 -0.9377
vn 0.0834 0.8408 -0.5348
vn 0.1335 0.3591 -0.9237
vn 0.3302 0.8343 -0.4414
vn 0.5733 0.3988 -0.7157
vn 0.8986 -0.2629 -0.3512
vn 0.4516 0.8801 -0.1463
vn 0.8810 0.3847 -0.2752
vn 0.4489 0.8869 0.1086
vn 0.9155 0.3582 0.1832
vn 0.3216 0.8344 0.4475
vn 0.5888 0.2535 0.7674
vn 0.1419 -0.3304 0.9331
vn 0.0942 -0.7815 0.6167
vn 0.0786 0.8763 0.4752
vn 0.1337 0.2217 0.9659
vn -0.0744 0.8645 0.4971
vn -0.1007 0.2756 0.9559
vn 0.0654 -0.9949 0.0762
vn -0.0597 -0.9947 0.0832
vn -0.0572 -0.9921 -0.1118
vn -0.0924 0.9917 0.0892
vn 0.0627 0.9941 0.0886
vn 0.0523 0.9965 -0.0657
usemtl Material.003
s 1
f 36/1/1 12/2/2 2/3/3 13/4/4
f 40/5/5 20/6/6 3/7/7 21/8/8
f 44/9/9 26/10/10 4/11/11 27/12/12
f 48/13/13 15/14/14 1/15/15 31/16/16
f 52/17/17 21/18/8 3/19/7 28/20/18
f 56/21/19 17/22/20 6/23/21 10/24/22
f 15/25/14 34/26/23 14/27/24 1/28/15
f 34/26/23 36/1/1 13/4/4 14/27/24
f 5/29/25 9/30/26 33/31/27 16/32/28
f 16/32/28 33/31/27 34/26/23 15/25/14
f 9/30/26 10/33/22 35/34/29 33/31/27
f 33/31/27 35/34/29 36/1/1 34/26/23
f 10/33/22 6/35/21 11/36/30 35/34/29
f 35/34/29 11/36/30 12/2/2 36/1/1
f 12/37/2 38/38/31 22/39/32 2/40/3
f 38/38/31 40/5/5 21/8/8 22/39/32
f 6/41/21 17/42/20 37/43/33 11/44/30
f 11/44/30 37/43/33 38/38/31 12/37/2
f 17/42/20 18/45/34 39/46/35 37/43/33
f 37/43/33 39/46/35 40/5/5 38/38/31
f 18/45/34 7/47/36 19/48/37 39/46/35
f 39/46/35 19/48/37 20/6/6 40/5/5
f 20/49/6 42/50/38 28/51/18 3/52/7
f 42/50/38 44/9/9 27/12/12 28/51/18
f 7/53/36 23/54/39 41/55/40 19/56/37
f 19/56/37 41/55/40 42/50/38 20/49/6
f 23/54/39 24/57/41 43/58/42 41/55/40
f 41/55/40 43/58/42 44/9/9 42/50/38
f 24/57/41 8/59/43 25/60/44 43/58/42
f 43/58/42 25/60/44 26/10/10 44/9/9
f 26/61/10 46/62/45 32/63/46 4/64/11
f 46/62/45 48/13/13 31/16/16 32/63/46
f 8/65/43 29/66/47 45/67/48 25/68/44
f 25/68/44 45/67/48 46/62/45 26/61/10
f 29/66/47 30/69/49 47/70/50 45/67/48
f 45/67/48 47/70/50 48/13/13 46/62/45
f 30/69/49 5/71/25 16/72/28 47/70/50
f 47/70/50 16/72/28 15/14/14 48/13/13
f 32/73/46 50/74/51 27/75/12 4/76/11
f 50/74/51 52/17/17 28/20/18 27/75/12
f 1/77/15 14/78/24 49/79/52 31/80/16
f 31/80/16 49/79/52 50/74/51 32/73/46
f 14/78/24 13/81/4 51/82/53 49/79/52
f 49/79/52 51/82/53 52/17/17 50/74/51
f 13/81/4 2/83/3 22/84/32 51/82/53
f 51/82/53 22/84/32 21/18/8 52/17/17
f 30/85/49 54/86/54 9/87/26 5/88/25
f 54/86/54 56/21/19 10/24/22 9/87/26
f 8/89/43 24/90/41 53/91/55 29/92/47
f 29/92/47 53/91/55 54/86/54 30/85/49
f 24/90/41 23/93/39 55/94/56 53/91/55
f 53/91/55 55/94/56 56/21/19 54/86/54
f 23/93/39 7/95/36 18/96/34 55/94/56
f 55/94/56 18/96/34 17/22/20 56/21/19
