# Blender v2.79 (sub 0) OBJ File: 'RockSet.blend'
# www.blender.org
mtllib Rock3_30.mtl
o Cube_Cube.001
v 0.143722 -0.486679 0.279959
v -1.870020 0.237015 -1.160517
v -2.041874 -0.148484 -1.335442
v -2.020035 -0.557914 -0.926232
v -2.074609 -0.108700 0.411277
v 0.118242 0.234556 -1.218069
v -0.290346 -0.503378 -1.341279
v 0.338679 0.258975 -0.461522
v 0.345661 -0.537918 -0.376107
v -1.601518 0.261323 0.362893
v -1.508745 -0.544678 0.417242
v -2.417874 -0.136827 -0.495793
v -0.910457 -0.138980 -1.587844
v 0.683207 -0.116579 -0.408433
v 0.258038 0.065831 0.462803
v -1.324779 -0.126493 0.626142
v -0.743391 -0.685402 -0.541658
v -0.940287 0.389680 -0.428387
vt 0.158442 0.527678
vt 0.086935 0.674187
vt 0.000124 0.495816
vt 0.641791 0.027096
vt 0.514663 0.183087
vt 0.521619 0.000194
vt 0.938719 0.653755
vt 0.818597 0.504290
vt 0.990174 0.500832
vt 0.682638 0.249968
vt 0.826789 0.177008
vt 0.853956 0.329727
vt 0.160409 0.105900
vt 0.325231 0.080199
vt 0.098980 0.322999
vt 0.674514 0.034546
vt 0.800251 0.000589
vt 0.514662 0.521346
vt 0.628607 0.377646
vt 0.614067 0.658523
vt 0.385849 0.371750
vt 0.338883 0.519662
vt 0.503838 0.338924
vt 0.349080 0.257043
vt 0.702395 0.654058
vt 0.747249 0.355970
vt 0.358469 0.022925
vt 0.153783 0.000196
vt 0.966704 0.356837
vt 0.650481 0.290859
vt 0.973289 0.038485
vt 0.993507 0.298976
vt 0.016866 0.364902
vt 0.247693 0.353807
vt 0.316155 0.316109
vt 0.015899 0.071096
vt 0.368136 0.661738
vt 0.313146 0.596417
vn 0.0244 -0.9992 -0.0302
vn 0.3189 -0.6623 -0.6779
vn 0.6166 -0.7856 -0.0499
vn -0.2463 0.8310 0.4987
vn -0.9954 0.0544 0.0781
vn -0.7691 0.0210 0.6387
vn -0.3896 0.8114 -0.4357
vn -0.0412 0.0086 -0.9991
vn -0.5986 -0.0687 -0.7981
vn 0.5332 0.3457 0.7721
vn 0.9970 0.0296 -0.0717
vn 0.4713 0.8817 0.0181
vn -0.0352 0.0237 0.9991
vn -0.2090 -0.7921 0.5734
vn 0.3897 -0.7119 0.5842
vn 0.0009 0.9998 0.0215
vn 0.5493 0.5163 -0.6570
vn -0.4816 -0.8305 -0.2798
usemtl Material.003
s 1
f 17/1/1 7/2/2 9/3/3
f 10/4/4 12/5/5 5/6/6
f 2/7/7 13/8/8 3/9/9
f 15/10/10 14/11/11 8/12/12
f 16/13/13 11/14/14 15/15/10
f 1/16/15 9/17/3 14/11/11 15/10/10
f 18/18/16 2/19/7 10/20/4
f 6/21/17 18/18/16 8/22/12
f 12/5/5 3/23/9 4/24/18
f 13/8/8 6/25/17 7/26/2
f 11/27/14 5/6/6 12/5/5 4/24/18
f 16/13/13 5/28/6 11/14/14
f 4/29/18 3/9/9 13/8/8 7/26/2
f 10/4/4 2/30/7 12/5/5
f 2/30/7 3/23/9 12/5/5
f 7/31/2 6/32/17 14/11/11 9/17/3
f 2/7/7 6/25/17 13/8/8
f 1/33/15 11/34/14 17/1/1 9/3/3
f 8/12/12 14/11/11 6/32/17
f 15/15/10 11/14/14 1/35/15
f 10/36/4 16/13/13 15/15/10
f 10/36/4 5/28/6 16/13/13
f 18/18/16 10/20/4 15/37/10 8/22/12
f 11/34/14 4/38/18 17/1/1
f 4/38/18 7/2/2 17/1/1
f 6/21/17 2/19/7 18/18/16
